<mxfile host="65bd71144e">
    <diagram id="k9L37Yi1PvL7NM4kP-N5" name="Page-1">
        <mxGraphModel dx="671" dy="615" grid="1" gridSize="10" guides="1" tooltips="1" connect="1" arrows="1" fold="1" page="1" pageScale="1" pageWidth="1169" pageHeight="827" math="0" shadow="0">
            <root>
                <mxCell id="0"/>
                <mxCell id="1" parent="0"/>
                <mxCell id="13" value="Deploy" style="edgeStyle=orthogonalEdgeStyle;rounded=0;orthogonalLoop=1;jettySize=auto;html=1;" edge="1" parent="1" source="2" target="5">
                    <mxGeometry relative="1" as="geometry"/>
                </mxCell>
                <mxCell id="2" value="Auto ML&lt;br&gt;((result)Voting Ensemble)" style="aspect=fixed;html=1;points=[];align=center;image;fontSize=12;image=img/lib/azure2/ai_machine_learning/Machine_Learning_Studio_Workspaces.svg;" vertex="1" parent="1">
                    <mxGeometry x="160" y="194" width="68" height="64" as="geometry"/>
                </mxCell>
                <mxCell id="12" value="Deploy" style="edgeStyle=orthogonalEdgeStyle;rounded=0;orthogonalLoop=1;jettySize=auto;html=1;entryX=0.5;entryY=0.009;entryDx=0;entryDy=0;entryPerimeter=0;" edge="1" parent="1" source="3" target="6">
                    <mxGeometry relative="1" as="geometry"/>
                </mxCell>
                <mxCell id="3" value="Hyperdrive&lt;br&gt;Hyper parameter configuration&lt;br&gt;(Random Forest Classifier)" style="aspect=fixed;html=1;points=[];align=center;image;fontSize=12;image=img/lib/azure2/ai_machine_learning/Machine_Learning_Studio_Workspaces.svg;" vertex="1" parent="1">
                    <mxGeometry x="380" y="194" width="68" height="64" as="geometry"/>
                </mxCell>
                <mxCell id="5" value="Deploy to an Endpoint&lt;br&gt;for REST access" style="aspect=fixed;html=1;points=[];align=center;image;fontSize=12;image=img/lib/azure2/ai_machine_learning/Machine_Learning_Studio_Workspaces.svg;" vertex="1" parent="1">
                    <mxGeometry x="160" y="370" width="68" height="64" as="geometry"/>
                </mxCell>
                <mxCell id="6" value="Deploy to an Endpoint&lt;br&gt;for REST access" style="aspect=fixed;html=1;points=[];align=center;image;fontSize=12;image=img/lib/azure2/ai_machine_learning/Machine_Learning_Studio_Workspaces.svg;" vertex="1" parent="1">
                    <mxGeometry x="380" y="370" width="68" height="64" as="geometry"/>
                </mxCell>
                <mxCell id="14" value="Access Logs" style="edgeStyle=orthogonalEdgeStyle;rounded=0;orthogonalLoop=1;jettySize=auto;html=1;" edge="1" parent="1" source="7" target="6">
                    <mxGeometry relative="1" as="geometry"/>
                </mxCell>
                <mxCell id="7" value="Application Insight&lt;br&gt;to monitor" style="aspect=fixed;html=1;points=[];align=center;image;fontSize=12;image=img/lib/azure2/devops/Application_Insights.svg;" vertex="1" parent="1">
                    <mxGeometry x="570" y="371" width="44" height="63" as="geometry"/>
                </mxCell>
                <mxCell id="15" value="Access Logs" style="edgeStyle=orthogonalEdgeStyle;rounded=0;orthogonalLoop=1;jettySize=auto;html=1;" edge="1" parent="1" source="8" target="5">
                    <mxGeometry relative="1" as="geometry"/>
                </mxCell>
                <mxCell id="8" value="" style="aspect=fixed;html=1;points=[];align=center;image;fontSize=12;image=img/lib/azure2/devops/Application_Insights.svg;" vertex="1" parent="1">
                    <mxGeometry y="370" width="44" height="63" as="geometry"/>
                </mxCell>
                <mxCell id="10" value="Load data for training" style="edgeStyle=orthogonalEdgeStyle;rounded=0;orthogonalLoop=1;jettySize=auto;html=1;entryX=0.629;entryY=0.022;entryDx=0;entryDy=0;entryPerimeter=0;" edge="1" parent="1" source="9" target="2">
                    <mxGeometry relative="1" as="geometry"/>
                </mxCell>
                <mxCell id="11" value="Load Data for Training" style="edgeStyle=orthogonalEdgeStyle;rounded=0;orthogonalLoop=1;jettySize=auto;html=1;entryX=0.588;entryY=-0.062;entryDx=0;entryDy=0;entryPerimeter=0;" edge="1" parent="1" source="9" target="3">
                    <mxGeometry relative="1" as="geometry"/>
                </mxCell>
                <mxCell id="9" value="Dataset" style="pointerEvents=1;shadow=0;dashed=0;html=1;strokeColor=none;fillColor=#505050;labelPosition=center;verticalLabelPosition=bottom;outlineConnect=0;verticalAlign=top;align=center;shape=mxgraph.office.clouds.cloud;" vertex="1" parent="1">
                    <mxGeometry x="260" y="50" width="94" height="55" as="geometry"/>
                </mxCell>
                <mxCell id="19" value="Rest call" style="edgeStyle=orthogonalEdgeStyle;rounded=0;orthogonalLoop=1;jettySize=auto;html=1;" edge="1" parent="1" source="16" target="5">
                    <mxGeometry relative="1" as="geometry"/>
                </mxCell>
                <mxCell id="16" value="Any applications&lt;br&gt;with REST access" style="dashed=0;outlineConnect=0;html=1;align=center;labelPosition=center;verticalLabelPosition=bottom;verticalAlign=top;shape=mxgraph.webicons.chrome;gradientColor=#DFDEDE" vertex="1" parent="1">
                    <mxGeometry x="170.5" y="570" width="47" height="44" as="geometry"/>
                </mxCell>
                <mxCell id="18" value="REST call" style="edgeStyle=orthogonalEdgeStyle;rounded=0;orthogonalLoop=1;jettySize=auto;html=1;" edge="1" parent="1" source="17" target="6">
                    <mxGeometry relative="1" as="geometry"/>
                </mxCell>
                <mxCell id="17" value="Any applications &lt;br&gt;with REST access" style="dashed=0;outlineConnect=0;html=1;align=center;labelPosition=center;verticalLabelPosition=bottom;verticalAlign=top;shape=mxgraph.webicons.chrome;gradientColor=#DFDEDE" vertex="1" parent="1">
                    <mxGeometry x="390.5" y="570" width="47" height="44" as="geometry"/>
                </mxCell>
            </root>
        </mxGraphModel>
    </diagram>
</mxfile>